<?xml version="1.0" encoding="iso-8859-1"?>
<!-- Uploaded to: SVGRepo, www.svgrepo.com, Transformed by: SVGRepo Tools -->
<svg fill="#3088D4" height="800px" width="800px" version="1.1" id="Layer_1" xmlns="http://www.w3.org/2000/svg" xmlns:xlink="http://www.w3.org/1999/xlink" 
	 viewBox="0 0 470 470" xml:space="preserve" transform="translate(100, 100) rotate(45 60 60)">
<g>
	<g>
		<path d="M312.248,108.251c-44.97,0-81.626,36.174-82.46,80.949c-11.27-5.786-24.025-9.074-37.541-9.074h-7.5v-62.722
			c0-39.94-17.911-77.346-47.932-102.404h141.086c-30.021,25.057-47.93,62.463-47.93,102.404c0,4.142,3.357,7.5,7.5,7.5
			s7.5-3.358,7.5-7.5c0-42.247,22.567-81.299,59.01-102.404h27.983c4.143,0,7.5-3.358,7.5-7.5c0-4.142-3.357-7.5-7.5-7.5H82.753
			c-4.143,0-7.5,3.358-7.5,7.5c0,4.142,3.357,7.5,7.5,7.5h27.984c36.442,21.106,59.01,60.158,59.01,102.404v62.722H90.253v-2.5
			c0-4.142-3.357-7.5-7.5-7.5s-7.5,3.358-7.5,7.5v50c0,4.142,3.357,7.5,7.5,7.5s7.5-3.358,7.5-7.5v-2.5h79.494V357.5
			c0,62.033,50.468,112.5,112.5,112.5s112.5-50.467,112.5-112.5V190.751C394.747,145.26,357.738,108.251,312.248,108.251z
			 M90.253,210.125v-15h101.994c37.22,0,67.5,30.28,67.5,67.5v38c0,20.678,16.823,37.5,37.501,37.5
			c20.677,0,37.499-16.822,37.499-37.5v-53c0-20.678-16.822-37.5-37.499-37.5c-8.436,0-16.229,2.802-22.501,7.521v-17.441
			c7-3.329,14.696-5.08,22.501-5.08c28.948,0,52.499,23.551,52.499,52.5v53c0,28.949-23.551,52.5-52.499,52.5
			c-28.949,0-52.501-23.551-52.501-52.5v-38c0-28.949-23.552-52.5-52.5-52.5h-14.981C177.227,210.125,90.253,210.125,90.253,210.125
			z M297.247,255.125h22.5v11.5h-22.5c-4.143,0-7.5,3.358-7.5,7.5c0,4.142,3.357,7.5,7.5,7.5h22.5v11.5h-22.5
			c-4.143,0-7.5,3.358-7.5,7.5c0,4.142,3.357,7.5,7.5,7.5h21.21c-3.096,8.729-11.432,15-21.209,15
			c-12.407,0-22.501-10.093-22.501-22.5v-53c0-12.407,10.094-22.5,22.501-22.5c9.777,0,18.113,6.271,21.209,15h-21.21
			c-4.143,0-7.5,3.358-7.5,7.5C289.747,251.767,293.104,255.125,297.247,255.125z M275.41,183.76
			c3.286-17.347,18.549-30.51,36.838-30.51c20.677,0,37.499,16.822,37.499,37.5v14.514c-12.384-15.319-31.313-25.139-52.499-25.139
			C289.791,180.125,282.408,181.366,275.41,183.76z M349.747,342.987V357.5c0,20.678-16.822,37.5-37.499,37.5
			c-18.291,0-33.556-13.168-36.837-30.52c6.855,2.351,14.196,3.646,21.837,3.646C318.435,368.126,337.363,358.306,349.747,342.987z
			 M282.247,455c-53.762,0-97.5-43.738-97.5-97.5V225.125h7.5c20.678,0,37.5,16.822,37.5,37.5V357.5
			c0,45.491,37.01,82.5,82.501,82.5c10.552,0,20.637-2.013,29.92-5.64C325.625,447.287,304.821,455,282.247,455z M379.747,357.5
			c0,37.22-30.28,67.5-67.499,67.5c-37.22,0-67.501-30.28-67.501-67.5v-14.514c4.28,5.293,9.335,9.933,15.002,13.734v0.78
			c0,28.949,23.551,52.5,52.499,52.5s52.499-23.551,52.499-52.5V190.751c0-28.949-23.551-52.5-52.499-52.5
			c-28.949,0-52.501,23.551-52.501,52.5v24.528c-4.222-6.001-9.209-11.426-14.841-16.108l-0.157-8.489
			c0.037-37.188,30.303-67.431,67.499-67.431c37.219,0,67.499,30.28,67.499,67.5V357.5z"/>
	</g>
</g>
<g>
</g>
<g>
</g>
<g>
</g>
<g>
</g>
<g>
</g>
<g>
</g>
<g>
</g>
<g>
</g>
<g>
</g>
<g>
</g>
<g>
</g>
<g>
</g>
<g>
</g>
<g>
</g>
<g>
</g>
</svg>
