<svg version="1.0" xmlns="http://www.w3.org/2000/svg" width="512" height="512" viewBox="-40 -40 480 480" fill="none" stroke="#FFFFFF" stroke-width="15px" stroke-linejoin="round" stroke-linecap="round">
<circle fill="#3088D4" stroke="none" cx="200" cy="200" r="230"/>
<path d="M 50 250 A 50 50 0 1 0 150 350 L 300 200 Q 350 150 400 200 L 200 0 Q 250 50 200 100 Z"/>
<path d="M 150 350 A 10 10 0 1 1 100 300 L 200 200 A 10 10 0 1 1 250 250 Z"/>
<path d="M 100 200 l -30 -30"/>
<path d="M 120 180 l -30 -30"/>
<path d="M 60 180 l 40 -40"/>
<path d="M 130 200 l 40 -40"/>
<path d="M 130 200 l 40 -40"/>
<path d="M 170 230 l 50 50"/>
<path d="M 150 250 l 50 50"/>
<path d="M 185 245 l 15 -15" stroke-width="10px"/>
<path d="M 195 255 l 15 -15" stroke-width="10px"/>
<path d="M 205 265 l 15 -15" stroke-width="10px"/>
</svg>